<svg xmlns="http://www.w3.org/2000/svg" width="48" viewBox="0 0 48 48" height="48" version="1.0"><defs><clipPath id="a"><path d="M 8.816406 7.023438 L 38.941406 7.023438 L 38.941406 40.082031 L 8.816406 40.082031 Z M 8.816406 7.023438"/></clipPath></defs><path fill="#2E75B6" d="M 11.523438 2.742188 L 2.898438 2.742188 L 2.898438 15.96875 L 5.039062 15.96875 L 5.039062 4.882812 L 16.121094 4.882812 L 16.121094 2.742188 Z M 11.523438 2.742188"/><path fill="#2E75B6" d="M 44.039062 3.890625 L 44.039062 2.742188 L 2.898438 2.742188 L 2.898438 44.621094 L 44.039062 44.621094 Z M 43.722656 3.890625 L 43.722656 44.296875 L 3.21875 44.296875 L 3.21875 3.066406 L 43.722656 3.066406 Z M 43.722656 3.890625"/><g clip-path="url(#a)"><path fill="#092641" d="M 22.570312 7.023438 C 18.871094 7.023438 15.523438 7.695312 13.039062 8.824219 C 11.796875 9.386719 10.765625 10.066406 10.023438 10.863281 C 9.441406 11.488281 9.039062 12.203125 8.886719 12.972656 L 8.816406 12.972656 L 8.816406 32.148438 C 8.816406 35.855469 14.855469 38.761719 22.570312 38.761719 C 23.703125 38.761719 24.792969 38.691406 25.84375 38.574219 L 25.84375 37.246094 C 24.8125 37.367188 23.726562 37.4375 22.570312 37.4375 C 15.125 37.4375 10.125 34.703125 10.125 32.148438 L 10.125 29.042969 C 12.304688 31.289062 16.992188 32.808594 22.570312 32.808594 C 23.703125 32.808594 24.796875 32.746094 25.84375 32.625 L 25.84375 32.082031 C 25.84375 31.800781 25.890625 31.53125 25.972656 31.277344 C 24.90625 31.410156 23.773438 31.488281 22.570312 31.488281 C 15.125 31.488281 10.125 28.753906 10.125 26.199219 L 10.125 22.453125 C 10.863281 23.210938 11.851562 23.855469 13.039062 24.398438 C 15.523438 25.527344 18.871094 26.199219 22.570312 26.199219 C 26.265625 26.199219 29.613281 25.527344 32.097656 24.398438 C 33.289062 23.855469 34.273438 23.210938 35.011719 22.453125 L 35.011719 24.613281 C 35.484375 24.8125 35.925781 25.082031 36.320312 25.410156 L 36.320312 12.972656 L 36.25 12.972656 C 36.097656 12.203125 35.695312 11.488281 35.113281 10.863281 C 34.371094 10.066406 33.339844 9.386719 32.097656 8.824219 C 29.613281 7.695312 26.265625 7.023438 22.570312 7.023438 Z M 22.570312 8.34375 C 26.105469 8.34375 29.304688 9.003906 31.5625 10.027344 C 32.6875 10.542969 33.578125 11.144531 34.160156 11.769531 C 34.738281 12.394531 35.011719 13.011719 35.011719 13.632812 C 35.011719 14.257812 34.738281 14.875 34.160156 15.5 C 33.578125 16.125 32.6875 16.726562 31.5625 17.238281 C 29.304688 18.265625 26.105469 18.925781 22.570312 18.925781 C 19.03125 18.925781 15.832031 18.265625 13.578125 17.238281 C 12.449219 16.726562 11.558594 16.125 10.980469 15.5 C 10.398438 14.875 10.125 14.257812 10.125 13.632812 C 10.125 13.011719 10.398438 12.394531 10.980469 11.769531 C 11.558594 11.144531 12.449219 10.542969 13.578125 10.027344 C 15.832031 9.003906 19.03125 8.34375 22.570312 8.34375 Z M 10.125 16.503906 C 10.863281 17.257812 11.851562 17.90625 13.039062 18.445312 C 15.523438 19.574219 18.871094 20.246094 22.570312 20.246094 C 26.265625 20.246094 29.613281 19.574219 32.097656 18.445312 C 33.289062 17.90625 34.273438 17.257812 35.011719 16.503906 L 35.011719 19.585938 C 35.011719 20.210938 34.738281 20.824219 34.160156 21.449219 C 33.578125 22.074219 32.6875 22.679688 31.5625 23.191406 C 29.304688 24.214844 26.105469 24.875 22.570312 24.875 C 19.03125 24.875 15.832031 24.214844 13.578125 23.191406 C 12.449219 22.679688 11.558594 22.074219 10.980469 21.449219 C 10.398438 20.824219 10.125 20.210938 10.125 19.585938 Z M 33.046875 25.535156 C 30.886719 25.535156 29.117188 27.386719 29.117188 29.636719 L 29.117188 30.828125 L 28.398438 30.828125 C 27.675781 30.828125 27.152344 31.421875 27.152344 32.082031 L 27.152344 38.761719 C 27.152344 39.488281 27.675781 40.082031 28.398438 40.082031 L 37.695312 40.082031 C 38.351562 40.082031 38.941406 39.488281 38.941406 38.828125 L 38.941406 32.082031 C 38.941406 31.421875 38.414062 30.828125 37.695312 30.828125 L 36.976562 30.828125 L 36.976562 29.636719 C 36.976562 27.386719 35.207031 25.535156 33.046875 25.535156 Z M 33.046875 26.859375 C 34.488281 26.859375 35.664062 28.113281 35.664062 29.636719 L 35.664062 30.828125 L 30.425781 30.828125 L 30.425781 29.636719 C 30.425781 28.113281 31.605469 26.859375 33.046875 26.859375 Z M 28.460938 32.148438 L 37.628906 32.148438 L 37.628906 38.761719 L 28.460938 38.761719 Z M 33.046875 34.132812 C 32.523438 34.132812 32.128906 34.53125 32.128906 35.058594 C 32.128906 35.324219 32.261719 35.519531 32.457031 35.71875 L 32.457031 36.578125 C 32.457031 36.910156 32.71875 37.171875 33.046875 37.171875 C 33.375 37.171875 33.636719 36.910156 33.636719 36.578125 L 33.636719 35.71875 C 33.832031 35.519531 33.964844 35.324219 33.964844 35.058594 C 33.964844 34.53125 33.570312 34.132812 33.046875 34.132812 Z M 33.046875 34.132812"/></g></svg>