<svg xmlns="http://www.w3.org/2000/svg" width="48" viewBox="0 0 48 48" height="48" version="1.0"><defs><clipPath id="a"><path d="M 10.863281 5.730469 L 37.3125 5.730469 L 37.3125 40.992188 L 10.863281 40.992188 Z M 10.863281 5.730469"/></clipPath></defs><path fill="#2E75B6" d="M 11.523438 2.742188 L 2.898438 2.742188 L 2.898438 15.96875 L 5.039062 15.96875 L 5.039062 4.882812 L 16.121094 4.882812 L 16.121094 2.742188 Z M 11.523438 2.742188"/><path fill="#2E75B6" d="M 44.039062 3.890625 L 44.039062 2.742188 L 2.898438 2.742188 L 2.898438 44.621094 L 44.039062 44.621094 Z M 43.722656 3.890625 L 43.722656 44.296875 L 3.21875 44.296875 L 3.21875 3.066406 L 43.722656 3.066406 Z M 43.722656 3.890625"/><g clip-path="url(#a)"><path fill="#092641" d="M 27.128906 5.714844 C 27.09375 5.71875 27.058594 5.726562 27.03125 5.738281 L 13.585938 5.738281 C 12.097656 5.738281 10.863281 6.929688 10.863281 8.394531 L 10.863281 37.847656 C 10.863281 39.574219 12.316406 40.984375 14.074219 40.984375 L 34.105469 40.984375 C 35.859375 40.984375 37.3125 39.574219 37.3125 37.847656 L 37.3125 15.84375 C 37.335938 15.742188 37.335938 15.632812 37.3125 15.53125 L 37.3125 15.316406 C 37.320312 15.113281 37.238281 14.910156 37.09375 14.765625 L 28.148438 5.953125 C 28 5.808594 27.796875 5.730469 27.589844 5.738281 L 27.347656 5.738281 C 27.277344 5.71875 27.199219 5.710938 27.128906 5.714844 Z M 13.585938 7.269531 L 26.421875 7.269531 L 26.421875 13.664062 C 26.421875 15.203125 27.703125 16.464844 29.265625 16.464844 L 35.757812 16.464844 L 35.757812 37.847656 C 35.757812 38.742188 35.023438 39.453125 34.105469 39.453125 L 14.074219 39.453125 C 13.15625 39.453125 12.417969 38.742188 12.417969 37.847656 L 12.417969 8.394531 C 12.417969 7.761719 12.933594 7.269531 13.585938 7.269531 Z M 27.976562 7.988281 L 35.027344 14.933594 L 29.265625 14.933594 C 28.539062 14.933594 27.976562 14.378906 27.976562 13.664062 Z M 17.863281 22.59375 L 17.863281 24.128906 L 30.3125 24.128906 L 30.3125 22.59375 Z M 17.863281 25.660156 L 17.863281 27.191406 L 30.3125 27.191406 L 30.3125 25.660156 Z M 17.863281 28.726562 L 17.863281 30.257812 L 30.3125 30.257812 L 30.3125 28.726562 Z M 17.863281 31.789062 L 17.863281 33.324219 L 24.867188 33.324219 L 24.867188 31.789062 Z M 17.863281 31.789062"/></g></svg>