<svg xmlns="http://www.w3.org/2000/svg" width="48" viewBox="0 0 48 48" height="48" version="1.0">
    <defs>
        <clipPath id="a">
            <path d="M 11.328125 5.515625 L 36.304688 5.515625 L 36.304688 41.515625 L 11.328125 41.515625 Z M 11.328125 5.515625"/></clipPath></defs><path fill="#2E75B6" d="M 11.523438 2.742188 L 2.898438 2.742188 L 2.898438 15.96875 L 5.039062 15.96875 L 5.039062 4.882812 L 16.121094 4.882812 L 16.121094 2.742188 Z M 11.523438 2.742188"/><path fill="#2E75B6" d="M 44.039062 3.890625 L 44.039062 2.742188 L 2.898438 2.742188 L 2.898438 44.621094 L 44.039062 44.621094 Z M 43.722656 3.890625 L 43.722656 44.296875 L 3.21875 44.296875 L 3.21875 3.066406 L 43.722656 3.066406 Z M 43.722656 3.890625"/><g clip-path="url(#a)"><path fill="#092641" d="M 35.648438 20.183594 L 32.363281 20.183594 L 32.363281 14.1875 C 32.363281 9.410156 28.527344 5.519531 23.816406 5.519531 C 19.105469 5.519531 15.269531 9.410156 15.269531 14.1875 C 15.269531 14.554688 15.566406 14.851562 15.929688 14.851562 C 16.289062 14.851562 16.585938 14.554688 16.585938 14.1875 C 16.585938 10.144531 19.828125 6.855469 23.816406 6.855469 C 27.804688 6.855469 31.046875 10.144531 31.046875 14.1875 L 31.046875 20.183594 L 11.984375 20.183594 C 11.621094 20.183594 11.328125 20.484375 11.328125 20.851562 L 11.328125 40.847656 C 11.328125 41.214844 11.621094 41.511719 11.984375 41.511719 L 35.648438 41.511719 C 36.011719 41.511719 36.304688 41.214844 36.304688 40.847656 L 36.304688 20.851562 C 36.304688 20.484375 36.011719 20.183594 35.648438 20.183594 Z M 34.992188 40.179688 L 12.640625 40.179688 L 12.640625 21.515625 L 34.992188 21.515625 Z M 34.992188 40.179688"/></g><path fill="#092641" d="M 23.816406 24.183594 C 22.003906 24.183594 20.53125 25.679688 20.53125 27.515625 C 20.53125 28.378906 20.863281 29.199219 21.457031 29.820312 L 20.539062 35.40625 C 20.507812 35.597656 20.558594 35.796875 20.683594 35.945312 C 20.808594 36.09375 20.992188 36.179688 21.1875 36.179688 L 26.445312 36.179688 C 26.640625 36.179688 26.824219 36.09375 26.949219 35.945312 C 27.074219 35.792969 27.125 35.597656 27.09375 35.402344 L 26.175781 29.816406 C 26.769531 29.199219 27.101562 28.378906 27.101562 27.515625 C 27.101562 25.679688 25.628906 24.183594 23.816406 24.183594 Z M 24.820312 29.683594 L 25.667969 34.847656 L 21.960938 34.847656 L 22.8125 29.683594 C 22.851562 29.445312 22.761719 29.207031 22.578125 29.058594 C 22.113281 28.671875 21.84375 28.109375 21.84375 27.515625 C 21.84375 26.414062 22.730469 25.515625 23.816406 25.515625 C 24.902344 25.515625 25.789062 26.414062 25.789062 27.515625 C 25.789062 28.109375 25.519531 28.671875 25.054688 29.058594 C 24.871094 29.207031 24.78125 29.445312 24.820312 29.683594 Z M 24.820312 29.683594"/></svg>