<svg xmlns="http://www.w3.org/2000/svg" width="48" viewBox="0 0 48 48" height="48" version="1.0"><defs><clipPath id="a"><path d="M 9.035156 5.664062 L 26 5.664062 L 26 34 L 9.035156 34 Z M 9.035156 5.664062"/></clipPath><clipPath id="b"><path d="M 21 13 L 38.421875 13 L 38.421875 41.664062 L 21 41.664062 Z M 21 13"/></clipPath></defs><path fill="#2E75B6" d="M 11.523438 2.742188 L 2.898438 2.742188 L 2.898438 15.96875 L 5.039062 15.96875 L 5.039062 4.882812 L 16.121094 4.882812 L 16.121094 2.742188 Z M 11.523438 2.742188"/><path fill="#2E75B6" d="M 44.039062 3.890625 L 44.039062 2.742188 L 2.898438 2.742188 L 2.898438 44.621094 L 44.039062 44.621094 Z M 43.722656 3.890625 L 43.722656 44.296875 L 3.21875 44.296875 L 3.21875 3.066406 L 43.722656 3.066406 Z M 43.722656 3.890625"/><path fill="#092641" d="M 15.25 30.410156 C 14.9375 30.410156 14.6875 30.664062 14.6875 30.972656 C 14.6875 31.285156 14.9375 31.535156 15.25 31.535156 L 19.773438 31.535156 C 20.085938 31.535156 20.335938 31.285156 20.335938 30.972656 C 20.335938 30.664062 20.085938 30.410156 19.773438 30.410156 Z M 15.25 30.410156"/><path fill="#092641" d="M 15.816406 8.476562 C 15.816406 8.632812 15.761719 8.765625 15.652344 8.875 C 15.539062 8.984375 15.40625 9.039062 15.25 9.039062 C 15.09375 9.039062 14.960938 8.984375 14.851562 8.875 C 14.742188 8.765625 14.6875 8.632812 14.6875 8.476562 C 14.6875 8.324219 14.742188 8.191406 14.851562 8.082031 C 14.960938 7.972656 15.09375 7.914062 15.25 7.914062 C 15.40625 7.914062 15.539062 7.972656 15.652344 8.082031 C 15.761719 8.191406 15.816406 8.324219 15.816406 8.476562 Z M 15.816406 8.476562"/><path fill="#092641" d="M 18.078125 8.476562 C 18.078125 8.632812 18.023438 8.765625 17.910156 8.875 C 17.800781 8.984375 17.667969 9.039062 17.511719 9.039062 C 17.355469 9.039062 17.222656 8.984375 17.113281 8.875 C 17 8.765625 16.945312 8.632812 16.945312 8.476562 C 16.945312 8.324219 17 8.191406 17.113281 8.082031 C 17.222656 7.972656 17.355469 7.914062 17.511719 7.914062 C 17.667969 7.914062 17.800781 7.972656 17.910156 8.082031 C 18.023438 8.191406 18.078125 8.324219 18.078125 8.476562 Z M 18.078125 8.476562"/><path fill="#092641" d="M 20.335938 8.476562 C 20.335938 8.632812 20.28125 8.765625 20.171875 8.875 C 20.0625 8.984375 19.929688 9.039062 19.773438 9.039062 C 19.617188 9.039062 19.484375 8.984375 19.371094 8.875 C 19.261719 8.765625 19.207031 8.632812 19.207031 8.476562 C 19.207031 8.324219 19.261719 8.191406 19.371094 8.082031 C 19.484375 7.972656 19.617188 7.914062 19.773438 7.914062 C 19.929688 7.914062 20.0625 7.972656 20.171875 8.082031 C 20.28125 8.191406 20.335938 8.324219 20.335938 8.476562 Z M 20.335938 8.476562"/><g clip-path="url(#a)"><path fill="#092641" d="M 20.335938 33.785156 L 20.335938 32.660156 L 11.3125 32.660156 C 10.679688 32.660156 10.164062 32.15625 10.164062 31.535156 L 10.164062 29.285156 L 20.335938 29.285156 L 20.335938 28.160156 L 10.164062 28.160156 L 10.164062 11.289062 L 24.859375 11.289062 L 24.859375 12.414062 L 25.988281 12.414062 L 25.988281 7.914062 C 25.988281 6.671875 24.96875 5.667969 23.710938 5.667969 L 11.3125 5.667969 C 10.054688 5.667969 9.035156 6.671875 9.035156 7.914062 L 9.035156 31.535156 C 9.035156 32.777344 10.054688 33.785156 11.3125 33.785156 Z M 10.164062 7.914062 C 10.164062 7.296875 10.679688 6.792969 11.3125 6.792969 L 23.710938 6.792969 C 24.34375 6.792969 24.859375 7.296875 24.859375 7.914062 L 24.859375 10.164062 L 10.164062 10.164062 Z M 10.164062 7.914062"/></g><path fill="#092641" d="M 27.683594 39.410156 L 32.207031 39.410156 C 32.519531 39.410156 32.769531 39.15625 32.769531 38.847656 C 32.769531 38.535156 32.519531 38.285156 32.207031 38.285156 L 27.683594 38.285156 C 27.371094 38.285156 27.121094 38.535156 27.121094 38.847656 C 27.121094 39.15625 27.371094 39.410156 27.683594 39.410156 Z M 27.683594 39.410156"/><path fill="#092641" d="M 28.25 16.351562 C 28.25 16.507812 28.195312 16.640625 28.085938 16.75 C 27.972656 16.859375 27.839844 16.914062 27.683594 16.914062 C 27.527344 16.914062 27.394531 16.859375 27.285156 16.75 C 27.175781 16.640625 27.121094 16.507812 27.121094 16.351562 C 27.121094 16.195312 27.175781 16.0625 27.285156 15.953125 C 27.394531 15.84375 27.527344 15.789062 27.683594 15.789062 C 27.839844 15.789062 27.972656 15.84375 28.085938 15.953125 C 28.195312 16.0625 28.25 16.195312 28.25 16.351562 Z M 28.25 16.351562"/><path fill="#092641" d="M 30.511719 16.351562 C 30.511719 16.507812 30.453125 16.640625 30.34375 16.75 C 30.234375 16.859375 30.101562 16.914062 29.945312 16.914062 C 29.789062 16.914062 29.65625 16.859375 29.546875 16.75 C 29.433594 16.640625 29.378906 16.507812 29.378906 16.351562 C 29.378906 16.195312 29.433594 16.0625 29.546875 15.953125 C 29.65625 15.84375 29.789062 15.789062 29.945312 15.789062 C 30.101562 15.789062 30.234375 15.84375 30.34375 15.953125 C 30.453125 16.0625 30.511719 16.195312 30.511719 16.351562 Z M 30.511719 16.351562"/><path fill="#092641" d="M 32.769531 16.351562 C 32.769531 16.507812 32.714844 16.640625 32.605469 16.75 C 32.496094 16.859375 32.363281 16.914062 32.207031 16.914062 C 32.050781 16.914062 31.917969 16.859375 31.804688 16.75 C 31.695312 16.640625 31.640625 16.507812 31.640625 16.351562 C 31.640625 16.195312 31.695312 16.0625 31.804688 15.953125 C 31.917969 15.84375 32.050781 15.789062 32.207031 15.789062 C 32.363281 15.789062 32.496094 15.84375 32.605469 15.953125 C 32.714844 16.0625 32.769531 16.195312 32.769531 16.351562 Z M 32.769531 16.351562"/><g clip-path="url(#b)"><path fill="#092641" d="M 36.144531 13.539062 L 23.746094 13.539062 C 22.488281 13.539062 21.46875 14.546875 21.46875 15.789062 L 21.46875 19.164062 L 37.292969 19.164062 L 37.292969 36.035156 L 22.597656 36.035156 L 22.597656 28.160156 L 21.46875 28.160156 L 21.46875 39.410156 C 21.46875 40.652344 22.488281 41.660156 23.746094 41.660156 L 36.144531 41.660156 C 37.402344 41.660156 38.421875 40.652344 38.421875 39.410156 L 38.421875 15.789062 C 38.421875 14.546875 37.402344 13.539062 36.144531 13.539062 Z M 37.292969 39.410156 C 37.292969 40.03125 36.777344 40.535156 36.144531 40.535156 L 23.746094 40.535156 C 23.113281 40.535156 22.597656 40.03125 22.597656 39.410156 L 22.597656 37.160156 L 37.292969 37.160156 Z M 37.292969 18.039062 L 22.597656 18.039062 L 22.597656 15.789062 C 22.597656 15.167969 23.113281 14.664062 23.746094 14.664062 L 36.144531 14.664062 C 36.777344 14.664062 37.292969 15.167969 37.292969 15.789062 Z M 37.292969 18.039062"/></g><path fill="#092641" d="M 25.867188 21.804688 L 24.027344 20.890625 C 23.976562 20.863281 23.933594 20.851562 23.894531 20.851562 C 23.796875 20.851562 23.726562 20.929688 23.726562 21.0625 L 23.726562 21.414062 L 16.382812 21.414062 C 16.070312 21.414062 15.816406 21.664062 15.816406 21.976562 C 15.816406 22.285156 16.070312 22.539062 16.382812 22.539062 L 23.726562 22.539062 L 23.726562 22.886719 C 23.726562 23.023438 23.796875 23.101562 23.894531 23.101562 C 23.933594 23.101562 23.976562 23.085938 24.027344 23.058594 L 25.867188 22.148438 C 26.03125 22.050781 26.03125 21.898438 25.867188 21.804688 Z M 25.867188 21.804688"/><path fill="#092641" d="M 18.195312 24.226562 C 18.15625 24.226562 18.109375 24.238281 18.0625 24.265625 L 16.222656 25.179688 C 16.058594 25.273438 16.058594 25.425781 16.222656 25.523438 L 18.0625 26.433594 C 18.109375 26.460938 18.15625 26.476562 18.195312 26.476562 C 18.292969 26.476562 18.359375 26.398438 18.359375 26.261719 L 18.359375 25.914062 L 25.988281 25.914062 C 26.300781 25.914062 26.554688 25.660156 26.554688 25.351562 C 26.554688 25.039062 26.300781 24.789062 25.988281 24.789062 L 18.359375 24.789062 L 18.359375 24.4375 C 18.359375 24.304688 18.292969 24.226562 18.195312 24.226562 Z M 18.195312 24.226562"/></svg>